<?xml version="1.0" encoding="UTF-8"?> <svg xmlns="http://www.w3.org/2000/svg" viewBox="0 0 395.95 349.45"><defs><style>.cls-1{isolation:isolate;}.cls-2{opacity:0.5;}.cls-3{fill:#30b7bd;mix-blend-mode:screen;}</style></defs><title>Bog Blob</title><g class="cls-1"><g id="Layer_2" data-name="Layer 2"><g id="Illustrate"><g class="cls-2"><path class="cls-3" d="M352.61,88c16.12,31.45,32.28,63.09,39.34,98.36,3.64,17.91,5,35.8,3.2,52.52s-6.89,32.26-16.14,45.43a84.41,84.41,0,0,1-30.79,26.48,424.08,424.08,0,0,1-113.64,33.42c-13.06,2-26.22,3.37-39.25,4.2-51.85,1.46-105.52,4.9-152.52-19.7C7.83,309.1-2.5,271.15.49,230.58a229.09,229.09,0,0,1,7-40.89C35,89.73,110.58,1.76,214.89,0c46.37.44,87.54,20.85,115.28,57.26A240.7,240.7,0,0,1,352.61,88Z"></path></g></g></g></g></svg> 